{"title":"Sharpay's Fabulous Adventure 2011 DVDrip English Klam","uid":6680402,"size":1473121876,"categoryP":"video","categoryS":"movies","magnet":"?xt=urn:btih:55370a1875426d3cd0d5f1c9cc290c6c6b40eb23&amp;dn=Sharpay%5C%27s+Fabulous+Adventure+2011+DVDrip+English+Klam&amp;tr=udp%3A%2F%2Ftracker.openbittorrent.com%3A80&amp;tr=udp%3A%2F%2Fopen.demonii.com%3A1337&amp;tr=udp%3A%2F%2Ftracker.coppersurfer.tk%3A6969&amp;tr=udp%3A%2F%2Fexodus.desync.com%3A6969","seeders":1,"leechers":0,"uploader":"Klambake","files":-1,"time":1316133169,"description":"With: Ashley Tisdale, Bradley Steven Perry en Austin Butler\n\nSharpay Evans krijgt te horen dat ze auditie mag doen voor een musical op Broadway. Ze reist af naar New York samen met haar hondje. Eenmaal aangekomen blijkt dat de auditie voor haar hond is, en niet voor Sharpay zelf. Zal haar droom in duigen vallen, of zal dit het begin zijn van een nieuw avontuur?\n\nSharpay Evans travels to New York where she is pursuing a Broadway career but it's her dog who lands an acting gig first. \n\n------------------ Dutch Friends ------------------\nYou can find my Friends at: http://www.Film-Test.nl \n------ They got my dutchs subs ---- and more ------\n\nGeneral:\n\nComplete name                    : Sharpay's Fabulous Adventure\\Sharpay's Fabulous Adventure.avi\nFormat                           : AVI\nFormat/Info                      : Audio Video Interleave\nFile size                        : 1.37 GiB\nDuration                         : 1h 28mn\nOverall bit rate                 : 2 213 Kbps\n\nVideo:\n\nFormat                           : MPEG-4 Visual\nFormat profile                   : Simple@L3\nFormat settings, BVOP            : No\nFormat settings, QPel            : No\nFormat settings, GMC             : No warppoints\nFormat settings, Matrix          : Default (H.263)\nCodec ID                         : XVID\nCodec ID/Hint                    : XviD\nDuration                         : 1h 28mn\nBit rate                         : 1 818 Kbps\nWidth                            : 704 pixels\nHeight                           : 396 pixels\nDisplay aspect ratio             : 16:9\nFrame rate                       : 23.976 fps\nColor space                      : YUV\nChroma subsampling               : 4:2:0\nBit depth                        : 8 bits\nScan type                        : Progressive\nBits/(Pixel*Frame)               : 0.272\nStream size                      : 1.13 GiB (82%)\nWriting library                  : XviD 1.1.2 (UTC 2006-11-01)\n\nAudio:\n\nFormat                           : AC-3\nFormat/Info                      : Audio Coding 3\nMode extension                   : CM (complete main)\nCodec ID                         : 2000\nDuration                         : 1h 28mn\nBit rate mode                    : Constant\nBit rate                         : 384 Kbps\nChannel(s)                       : 6 channels\nChannel positions                : Front: L C R, Side: L R, LFE\nSampling rate                    : 48.0 KHz\nBit depth                        : 16 bits\nStream size                      : 244 MiB (17%)\nAlignment                        : Aligned on interleaves\nInterleave, duration             : 32 ms (0.77 video frame)\n\n","torrent":{"xt":"urn:btih:55370a1875426d3cd0d5f1c9cc290c6c6b40eb23","amp;dn":"Sharpay%5C%27s+Fabulous+Adventure+2011+DVDrip+English+Klam","amp;tr":["udp%3A%2F%2Ftracker.openbittorrent.com%3A80","udp%3A%2F%2Fopen.demonii.com%3A1337","udp%3A%2F%2Ftracker.coppersurfer.tk%3A6969","udp%3A%2F%2Fexodus.desync.com%3A6969"],"infoHash":"55370a1875426d3cd0d5f1c9cc290c6c6b40eb23","infoHashBuffer":{"type":"Buffer","data":[85,55,10,24,117,66,109,60,208,213,241,201,204,41,12,108,107,64,235,35]},"announce":[],"urlList":[]}}